<svg width="676" height="426" viewBox="0 0 676 426" fill="none" xmlns="http://www.w3.org/2000/svg">
<path d="M160.158 421.308H113.445L98.9865 307.307H57.2787L50.0493 421.308H0L61.1714 71.5189L37.259 0H92.3132L160.158 421.308ZM70.6252 104.329L58.3909 296.185H97.3182L87.3083 215.55L76.7423 104.329H70.6252Z" fill="#1F1247"/>
<path d="M209.578 332.632L222.246 139.797H260.719L206.763 421.308H196.91L142.954 139.797H178.612L194.095 238.795L204.417 332.632H209.578Z" fill="#1F1247"/>
<path d="M288.551 265.538V355.153C288.551 388.934 300.75 394.095 313.888 394.095C327.963 394.095 334.062 376.266 335.001 346.238L336.408 291.344H342.977L344.385 347.646C345.323 392.219 330.309 426 298.874 426C270.253 426 255.708 411.455 255.708 371.105V198.914C255.708 152.465 277.291 135.105 305.442 135.105C331.247 135.105 344.854 149.65 344.854 190.469V265.538H288.551ZM302.158 167.009C290.897 167.009 288.551 177.332 288.551 194.222V258.97H316.703V205.952C316.703 171.701 311.542 167.009 302.158 167.009Z" fill="#1F1247"/>
<path d="M391.611 139.797V144.958L380.351 216.274L385.042 217.212C394.895 146.834 410.848 135.105 428.677 135.105C446.037 135.105 458.705 149.65 458.705 173.109V421.308H425.862V191.407C425.862 174.516 423.516 167.009 414.601 167.009C401.464 167.009 391.611 199.383 391.611 243.018V421.308H358.768V139.797H391.611Z" fill="#1F1247"/>
<path d="M539.643 421.308V416.147L550.903 344.831L546.211 343.892C536.359 414.27 520.406 426 502.577 426C485.217 426 472.549 411.455 472.549 387.996V139.797H505.392V369.698C505.392 386.588 507.738 394.095 516.653 394.095C529.79 394.095 539.643 361.722 539.643 318.087V139.797H572.486V421.308H539.643Z" fill="#1F1247"/>
<path d="M619.174 265.538V355.153C619.174 388.934 631.372 394.095 644.51 394.095C658.585 394.095 664.685 376.266 665.623 346.238L667.031 291.344H673.599L675.007 347.646C675.945 392.219 660.931 426 629.496 426C600.875 426 586.331 411.455 586.331 371.105V198.914C586.331 152.465 607.913 135.105 636.064 135.105C661.87 135.105 675.476 149.65 675.476 190.469V265.538H619.174ZM632.78 167.009C621.52 167.009 619.174 177.332 619.174 194.222V258.97H647.325V205.952C647.325 171.701 642.164 167.009 632.78 167.009Z" fill="#1F1247"/>
<path d="M472.949 113.503H144.411L126.357 0.355469H454.896L472.949 113.503ZM231.939 38.29C231.939 56.2969 232.122 66.5212 232.488 68.9629C232.793 70.7331 235.113 73.816 239.447 78.2109C243.842 82.5447 247.016 84.7725 248.97 84.8945C252.266 85.1386 256.081 83.2156 260.415 79.126V82.5137C260.415 89.5944 258.583 94.3255 254.921 96.7061C251.259 99.1475 247.199 99.2697 242.743 97.0723C241.522 96.4618 239.081 95.0883 235.419 92.9521L233.038 96.5225C234.259 97.2549 236.06 98.3236 238.44 99.7275C240.882 101.192 242.896 102.382 244.483 103.298C246.131 104.213 247.352 104.854 248.146 105.221C250.221 106.136 253.12 105.923 256.844 104.58C260.628 103.298 264.077 101.1 267.19 97.9873C270.303 94.8743 271.859 91.5173 271.859 87.916V41.0371L260.415 38.4736V65.0254C257.912 69.2981 254.982 72.4725 251.625 74.5479C248.329 76.5622 245.765 76.4709 243.934 74.2734C243.14 73.1133 242.927 61.9731 243.293 40.8535L231.939 38.29ZM304.887 43.3262C304.398 43.021 303.605 42.502 302.506 41.7695C301.468 41.0371 300.645 40.4873 300.034 40.1211C299.485 39.7549 298.752 39.3579 297.837 38.9307C296.982 38.4423 296.158 38.0762 295.364 37.832C293.655 37.2828 291.702 37.4356 289.505 38.29C287.307 39.0836 285.201 40.4261 283.187 42.3184C281.233 44.2106 279.372 46.4085 277.602 48.9111C275.893 51.3526 274.641 54.0688 273.848 57.0596C273.054 59.9894 272.719 62.889 272.841 65.7578C272.963 68.6267 273.97 71.4348 275.862 74.1816C277.755 76.9284 280.44 79.2484 283.919 81.1406C285.872 82.2393 287.917 83.0629 290.054 83.6123C292.19 84.2227 293.96 84.6504 295.364 84.8945C296.829 85.1387 298.783 85.1387 301.225 84.8945C303.727 84.6504 305.375 84.4668 306.169 84.3447C306.963 84.2226 308.763 83.8265 311.57 83.1553C314.439 82.5449 316.027 82.2085 316.332 82.1475C316.698 81.7753 316.698 60.9911 316.332 19.7949L304.887 17.2314V43.3262ZM176.066 82.2393L188.885 84.8945L195.478 66.9482L217.086 65.4834L223.495 82.2393L235.307 84.8945L210.768 25.2881L210.859 25.0137L198.225 21.2598L176.066 82.2393ZM320.444 82.3311L331.89 84.8945V41.0371L320.444 38.4736V82.3311ZM408.156 37.4658C405.104 37.4658 402.296 38.1069 399.732 39.3887C397.169 40.6095 395.246 42.1971 393.964 44.1504C392.682 46.0426 391.888 48.1484 391.583 50.4678C391.339 52.7871 391.98 54.9844 393.506 57.0596C395.581 60.1116 398.298 62.9197 401.655 65.4834L402.479 65.9414C404.799 66.8568 410.201 66.1851 418.686 63.9268C421.371 63.1945 423.049 62.7975 423.721 62.7363C424.331 62.6753 424.606 62.7676 424.545 63.0117C423.202 68.0777 420.517 71.557 416.488 73.4492C412.521 75.3414 408.217 75.769 403.578 74.7314C398.939 73.6327 394.543 71.5262 390.393 68.4131L388.745 71.5264C393.384 75.9823 397.413 79.3401 400.831 81.5986C404.31 83.796 408.064 84.8945 412.093 84.8945C416.976 84.8945 421.157 83.7038 424.637 81.3232C428.116 78.9428 430.405 76.1354 431.504 72.9004C432.664 69.6042 432.511 66.1551 431.046 62.5537C429.581 58.9524 426.743 56.0529 422.531 53.8555C421.616 53.3671 419.57 53.4892 416.396 54.2217C413.222 54.8931 410.292 55.5649 407.606 56.2363C404.921 56.9077 403.517 56.9683 403.395 56.4189C402.906 54.0994 403.516 51.6882 405.226 49.1855C406.935 46.6218 409.285 45.1573 412.276 44.791C414.169 44.5469 418.075 45.0956 423.996 46.4385L425.003 41.4951C424.209 41.312 422.256 40.793 419.144 39.9385C416.092 39.0229 413.71 38.3819 412.001 38.0156C410.353 37.6495 409.072 37.4659 408.156 37.4658ZM353.531 37.4658C349.808 37.4658 346.359 38.7478 343.185 41.3115C340.072 43.8142 337.753 46.8665 336.227 50.4678C334.762 54.0691 334.243 57.9757 334.67 62.1875C335.097 66.3381 336.684 69.9393 339.431 72.9912C344.07 78.0575 349.014 81.598 354.264 83.6123C357.865 84.9552 361.497 84.9551 365.159 83.6123C368.822 82.3305 373.309 79.7367 378.619 75.8301L376.788 73.999C375.628 72.7172 374.468 71.4351 373.309 70.1533L371.478 68.3223C369.341 70.0924 367.479 71.5263 365.892 72.625C364.305 73.6627 362.321 74.7314 359.94 75.8301C357.621 76.8677 355.393 77.1425 353.257 76.6543C351.12 76.166 349.197 74.8839 347.488 72.8086L354.63 67.5898C359.452 64.1105 364.244 60.5999 369.005 57.0596C373.827 53.4582 376.269 51.5659 376.33 51.3828C373.156 48.392 369.158 45.3405 364.336 42.2275C359.575 39.0534 355.973 37.4658 353.531 37.4658ZM290.146 50.0098C292.526 47.2019 294.968 45.9199 297.471 46.1641C300.645 46.5303 303.117 47.2329 304.887 48.2705V73.999C298.05 78.8211 292.221 80.0109 287.398 77.5693C285.079 76.4095 283.736 74.0597 283.37 70.5195C283.065 66.9183 283.522 63.2863 284.743 59.624C285.964 55.9616 287.765 52.7566 290.146 50.0098ZM354.904 46.7139C358.017 45.9814 361.772 47.0193 366.167 49.8271L345.383 64.0186C345.383 59.3797 346.207 55.5344 347.854 52.4824C349.503 49.3695 351.852 47.4464 354.904 46.7139ZM214.156 57.8838L198.407 58.9824L206.281 37.374L214.156 57.8838ZM326.304 19.7949C325.266 20.0392 323.892 20.9244 322.184 22.4502C320.475 23.9761 319.56 25.2275 319.438 26.2041C320.963 29.1949 323.283 31.4228 326.396 32.8877C329.875 31.1176 332.133 28.9205 333.171 26.2959C331.706 23.366 329.417 21.1989 326.304 19.7949ZM388.208 8.16699C387.17 8.41134 385.797 9.29653 384.088 10.8223C382.379 12.3481 381.464 13.5996 381.342 14.5762C382.196 16.2851 383.57 17.9634 385.462 19.6113C385.645 21.8088 384.973 25.3493 383.447 30.2324L387.201 32.7051C388.544 31.1791 390.101 28.5237 391.871 24.7393C393.641 20.9549 394.709 17.9333 395.075 15.6748C395.136 14.454 394.404 13.1105 392.878 11.6455C391.413 10.1196 389.856 8.96047 388.208 8.16699Z" fill="#1F1247"/>
</svg>
